# xmcd CD database file
#
# Track frame offsets:
#	150
#	1778
#	23823
#	53757
#	70417
#	93781
#	98549
#	129554
#	158416
#	179270
#	208371
#	226684
#	235422
#	258805
#	280684
#	295887
#
# Disc length: 4110 seconds
#
# Revision: 4
# Processed by: cddbd v1.4PL0 Copyright (c) Steve Scherf et al.
# Submitted via: CDex 1.50Beta7
#
DISCID=c8100c10
DTITLE=Jovanotti - Autobiografia di una festa (Lorenzo Live)  CD2
DYEAR=1900
DGENRE=Rap
TTITLE0=Ahahahahahah-uh-uh
TTITLE1=Un raggio di sole
TTITLE2=Dal basso
TTITLE3=Non c'e' liberta'
TTITLE4=Questa e' la mia casa
TTITLE5=Grazie!!
TTITLE6=Penso positivo
TTITLE7=La vita nell'era spaziale
TTITLE8=Dolce far niente
TTITLE9=Serenata rap
TTITLE10=Stella cometa
TTITLE11=La linea d'ombra (intro)
TTITLE12=Il mio nome e' mai +
TTITLE13=Funky beat-o
TTITLE14=Rappers' delight
TTITLE15=Non m'annoio
EXTD=
EXTT0=
EXTT1=
EXTT2=
EXTT3=
EXTT4=
EXTT5=
EXTT6=
EXTT7=
EXTT8=
EXTT9=
EXTT10=
EXTT11=
EXTT12=
EXTT13=
EXTT14=
EXTT15=
PLAYORDER=
